<?xml version="1.0" encoding="UTF-8"?>
<svg xmlns="http://www.w3.org/2000/svg" width="261" height="82" viewBox="0 0 261 82" fill="none">
  <path fill-rule="evenodd" clip-rule="evenodd" d="M28.5653 0.238458C28.3937 0.374176 27.8645 1.20433 27.3891 2.08311C25.6826 5.238 24.267 6.7119 21.8522 7.84808C20.3548 8.55268 19.2098 8.80101 16.8093 8.94144C14.1069 9.09966 13.7684 9.14925 13.5221 9.42311C13.2835 9.68849 13.3664 10.109 13.6755 10.2002C13.7878 10.2334 14.4476 10.2939 15.1418 10.3348C18.5473 10.535 19.4955 10.9418 20.2138 12.511C20.4495 13.0258 20.4882 13.2958 20.474 14.3254C20.4504 16.034 20.1387 16.9727 18.1363 21.3672C17.203 23.4152 15.9266 26.2174 15.2997 27.5943C14.6729 28.9712 14.1786 30.1959 14.2012 30.3159C14.2601 30.6289 14.9706 30.6784 15.2859 30.3914C15.419 30.2703 16.8657 27.4496 18.5009 24.1232C21.8293 17.3523 22.5782 16.0936 24.3326 14.3204C25.6456 12.9936 26.625 12.2791 28.1303 11.5501C29.7846 10.7488 30.7362 10.5444 33.507 10.3949C34.8102 10.3246 36.0271 10.2366 36.2112 10.1992C36.7901 10.0816 37.0718 9.32392 36.6037 9.14321C36.5182 9.11006 35.6163 9.04547 34.5997 8.99962C32.3267 8.89705 31.106 8.69771 30.2003 8.28124C29.042 7.74853 28.4798 7.07902 28.238 5.94429C28.0523 5.07301 28.2451 4.14717 29.0336 2.12314C29.6027 0.662303 29.6943 0.328695 29.5684 0.175922C29.3569 -0.0803937 28.9349 -0.0541455 28.5653 0.238458ZM38.6474 13.191C33.6917 13.7047 28.7209 16.6962 24.927 21.4478C21.805 25.3578 19.0778 30.8747 18.193 35.0701C17.9322 36.3063 17.8969 38.9676 18.1307 39.7725C18.5923 41.362 19.7233 42.7942 21.0317 43.446C23.7946 44.8227 28.3672 44.6127 32.2427 42.9313C37.6158 40.6002 42.2679 35.5359 45.5196 28.4778C48.9943 20.9355 48.7001 15.878 44.6747 13.9543C43.1593 13.2301 40.9585 12.9514 38.6474 13.191ZM56.5511 13.2272C56.3528 13.314 56.1016 13.4879 55.9928 13.6133C55.7752 13.8644 51.442 22.9891 50.7144 24.728C49.0243 28.7678 50.0194 31.697 53.4311 32.7242C54.577 33.0692 56.6218 33.0149 57.9936 32.6029C59.839 32.0486 61.646 31.068 63.3204 29.7122C63.4923 29.5729 63.2825 30.0644 62.1433 32.4695C59.8225 37.3693 58.966 38.7711 57.2229 40.522C55.7323 42.0194 54.6901 42.5845 53.3816 42.6047C52.6924 42.6155 52.4614 42.5697 52.1946 42.3695C51.1078 41.5543 51.1345 39.6874 52.2755 36.7057C52.7202 35.5434 52.7289 35.3731 52.356 35.1273C52.1091 34.9645 51.64 34.9423 49.1181 34.9733L46.169 35.0096L45.8126 35.3535C44.8902 36.2434 44.8225 39.1987 45.6857 40.9013C46.0221 41.5651 47.0292 42.6316 47.7765 43.1157C49.1911 44.0322 51.2695 44.4738 53.5233 44.3369C57.784 44.078 61.28 42.5856 64.2488 39.7583C66.913 37.221 68.2818 35.0312 71.4893 28.1754C71.7538 27.6099 72.2796 26.494 72.6576 25.6957C73.0357 24.8973 73.5755 23.7543 73.8571 23.1555C74.1388 22.5568 75.2418 20.2264 76.3084 17.9769C77.3748 15.7276 78.2475 13.7829 78.2475 13.6555C78.2475 13.528 78.1163 13.3373 77.9561 13.2317C77.7059 13.0667 77.2528 13.0449 74.7407 13.0777C71.2423 13.1233 71.3567 13.0811 70.6618 14.5807C69.4203 17.2599 66.5699 23.011 66.1121 23.7603C64.2294 26.8425 61.9631 29.0194 60.003 29.6287C58.2189 30.1832 56.9091 29.7336 56.7343 28.5068C56.604 27.5919 56.7937 27.0489 58.4762 23.5184C58.9201 22.587 59.4883 21.3895 59.7388 20.8573C59.9894 20.325 60.8433 18.5139 61.6363 16.8324C63.117 13.6928 63.2078 13.3796 62.6949 13.1765C62.256 13.0028 56.9638 13.0465 56.5511 13.2272ZM93.1054 13.1795C90.2769 13.5244 87.3522 14.6804 84.9471 16.4045C83.7701 17.2482 81.3844 19.5404 80.3755 20.7968C78.3834 23.2779 77.6754 24.5977 72.655 35.1911C68.5883 43.7718 68.7019 43.5129 68.8548 43.8506L68.9868 44.1421H72.0605C74.5858 44.1421 75.1977 44.1091 75.4902 43.9568C75.766 43.8133 75.9988 43.4524 76.5236 42.3541C76.8961 41.5745 78.3022 38.6256 79.6483 35.801C80.9944 32.9763 82.1394 30.6214 82.1926 30.5678C82.2459 30.5143 84.1884 30.4847 86.5096 30.5023L90.7299 30.5341L87.6744 36.945C85.9939 40.471 84.6187 43.4676 84.6185 43.6039C84.6178 44.1198 84.7579 44.1421 87.9916 44.1421C90.9899 44.1421 91.0861 44.1347 91.4135 43.8756C91.7255 43.6284 92.337 42.4389 94.2919 38.2756C94.7615 37.2757 96.4192 33.8073 98.83 28.7802C100.096 26.1403 100.562 25.0741 100.985 23.8433C102.941 18.1635 101.737 14.4985 97.5633 13.4242C96.5234 13.1566 94.2966 13.0344 93.1054 13.1795ZM121.28 13.1318C118.934 13.3873 116.713 14.0586 114.665 15.1312C112.745 16.1368 111.271 17.2225 109.522 18.9198C106.796 21.5667 104.919 24.1969 102.991 28.0728C98.6197 36.8629 99.2885 42.5902 104.854 44.0173C108.878 45.0494 113.898 43.7987 118.178 40.6976C119.504 39.737 122.701 36.5117 123.778 35.048C125.365 32.8914 127.529 29.2624 127.53 28.7568C127.53 28.6441 127.41 28.4672 127.263 28.3637C127.029 28.1992 126.212 28.1754 120.788 28.1754C113.672 28.1754 114.269 28.0758 113.656 29.3654C113.126 30.4816 113.082 30.4627 116.305 30.5016L118.997 30.5341L117.999 32.3485C114.39 38.9119 111.034 42.5773 108.602 42.6127C106.627 42.6414 106.239 40.5081 107.451 36.2797C108.18 33.7348 109.367 30.8792 111.295 27.0262C114.578 20.4684 117.748 16.351 120.474 15.1057C121.153 14.7954 122.395 14.7893 122.964 15.0934C123.204 15.2213 123.512 15.545 123.684 15.8494C123.948 16.3183 123.983 16.5185 123.976 17.5308C123.966 18.8509 123.628 20.2729 122.843 22.2909C122.578 22.9735 122.361 23.6404 122.361 23.7731C122.361 24.2804 122.512 24.3046 125.673 24.3046C128.613 24.3046 128.708 24.2971 129.105 24.0309C129.617 23.6879 129.865 23.1822 130.227 21.7457C130.733 19.739 130.71 18.2177 130.152 16.7099C129.959 16.1864 129.69 15.8114 129.044 15.163C128.082 14.1974 127.099 13.704 125.487 13.3763C124.581 13.1924 122.066 13.0461 121.28 13.1318ZM0.657541 13.3858C0.274099 13.4773 -0.003807 13.7929 3.94396e-05 14.1325C0.00196266 14.3051 1.64824 21.0593 3.65849 29.1417C7.59087 44.9527 7.38509 44.2631 8.17012 44.2631C8.35379 44.2631 8.61379 44.1678 8.74793 44.0514C8.88195 43.9351 9.76315 42.2127 10.706 40.2241C12.3395 36.7786 12.4201 36.5737 12.4166 35.8695C12.4138 35.3198 11.745 32.4364 9.8045 24.607C8.36977 18.8191 7.11788 13.9631 7.02232 13.816C6.92676 13.6689 6.64561 13.4951 6.39751 13.4298C5.95109 13.3121 1.12116 13.2751 0.657541 13.3858ZM139.481 13.525C139.26 13.6606 138.987 14.0132 138.802 14.4015C138.631 14.7588 137.751 16.6025 136.844 18.4985C135.938 20.3946 134.965 22.4358 134.683 23.0345C134.4 23.6333 133.792 24.9125 133.33 25.8771C131.652 29.3879 128.328 36.3644 127.886 37.3079C127.636 37.8401 126.886 39.4183 126.219 40.815C125.552 42.2117 125.006 43.4665 125.006 43.6032C125.006 43.74 125.071 43.9172 125.15 43.997C125.259 44.1069 127.246 44.1421 133.357 44.1421C142.439 44.1421 141.728 44.2197 142.257 43.1701C142.593 42.5024 142.64 42.0235 142.38 41.9229C142.283 41.8856 140.163 41.8514 137.669 41.8468C135.175 41.8421 133.112 41.8158 133.084 41.7884C133.057 41.7609 134.183 39.3262 135.587 36.3782C136.991 33.43 138.301 30.6778 138.499 30.2619L138.859 29.5059H142.623C144.743 29.5059 146.519 29.4551 146.69 29.3894C146.889 29.3134 147.121 29.0212 147.359 28.5462C147.767 27.7329 147.815 27.3896 147.534 27.2811C147.429 27.2407 145.698 27.2077 143.687 27.2077C141.676 27.2077 140.031 27.1727 140.031 27.1299C140.031 27.0871 140.876 25.2773 141.908 23.108C142.94 20.9387 144.166 18.361 144.631 17.3796L145.478 15.5955L149.576 15.5937C152.583 15.5923 153.754 15.5522 153.974 15.4425C154.341 15.2603 155.103 13.8024 154.988 13.5024C154.916 13.3125 154.349 13.2972 147.38 13.2977C140.229 13.2981 139.832 13.3096 139.481 13.525ZM40.5043 15.1015C40.6695 15.2154 40.913 15.5229 41.0452 15.7848C41.3829 16.4536 41.3563 18.2627 40.9856 19.8291C39.9935 24.0205 36.7251 31.2435 33.6789 35.9764C30.5593 40.823 27.4538 43.2899 25.5102 42.4647C24.3031 41.9522 24.1878 39.6579 25.1993 36.2797C26.7814 30.9962 30.9001 22.8719 33.9989 18.9219C36.6134 15.5894 39.0968 14.131 40.5043 15.1015ZM95.1687 15.1386C95.8114 15.5277 95.978 15.9742 95.9713 17.2889C95.9618 19.1616 95.4029 20.7848 93.1648 25.439C92.4969 26.8279 91.9504 28.0118 91.9504 28.0699C91.9504 28.128 90.0083 28.1754 87.6293 28.1754H83.3082L83.4715 27.7822C84.008 26.4909 86.4904 21.5225 87.0828 20.5549C88.7622 17.8106 90.5257 15.9881 92.2393 15.2253C93.3487 14.7315 94.4429 14.699 95.1687 15.1386ZM54.8683 50.4829C52.9113 50.8655 51.6598 51.6555 51.0222 52.9106C50.7021 53.5407 50.6619 53.7385 50.6665 54.6575C50.6704 55.4445 50.7326 55.8292 50.9248 56.2562C51.4391 57.3987 52.6725 58.2776 54.3875 58.7238C55.5499 59.0262 58.4937 59.0373 59.6538 58.7438C61.3884 58.3046 62.5053 57.5327 63.0647 56.3863C63.3591 55.783 63.4026 55.5537 63.4026 54.6052C63.4026 53.6269 63.3668 53.4515 63.0495 52.875C62.4255 51.7416 61.459 51.0675 59.7966 50.6063C58.8166 50.3345 55.9899 50.2637 54.8683 50.4829ZM73.4995 50.4239C71.8725 50.6928 70.6909 51.2585 69.8944 52.15C69.1908 52.9376 68.9473 53.6994 69.0161 54.897C69.1411 57.0691 70.5766 58.3438 73.4718 58.8536C74.7789 59.0838 76.928 59.0197 78.0648 58.7167C80.4885 58.0705 81.7715 56.6936 81.7833 54.7262C81.7957 52.6336 80.5884 51.2515 78.1874 50.6095C77.3581 50.3878 74.4215 50.2716 73.4995 50.4239ZM108.349 50.4883C106.282 50.8662 105.173 51.8392 105.173 53.2747C105.173 54.9952 106.386 55.7348 109.74 56.0584C111.227 56.202 111.904 56.5055 111.904 57.0286C111.904 57.3872 111.532 57.6504 110.876 57.7558C110.215 57.8619 109.568 57.5775 109.255 57.0433C109.12 56.8143 108.902 56.5984 108.769 56.5635C108.277 56.4342 105.703 56.4935 105.407 56.641C104.904 56.8922 104.958 57.3475 105.552 57.8591C106.497 58.6737 108.689 59.1087 111.183 58.9766C113.434 58.8574 114.84 58.3956 115.599 57.5256C116.399 56.608 116.326 54.9842 115.449 54.2195C114.815 53.6671 114.139 53.4712 111.969 53.2119C110.025 52.9793 109.494 52.7998 109.405 52.3441C109.334 51.9858 109.785 51.6205 110.38 51.553C110.93 51.4906 110.966 51.5063 111.436 52.0187L111.922 52.5489L113.309 52.5899C115.09 52.6425 115.485 52.5695 115.64 52.1596C115.899 51.4742 114.669 50.7425 112.745 50.4371C111.695 50.2703 109.396 50.2971 108.349 50.4883ZM36.2971 50.5909L35.9967 50.7415L35.965 54.5227C35.9442 56.992 35.977 58.3862 36.0593 58.5412C36.1773 58.7629 36.3225 58.7784 38.282 58.7784C40.8613 58.7784 40.7658 58.8495 40.7443 56.9444C40.7365 56.2566 40.7335 55.5986 40.7375 55.4822C40.7441 55.2895 40.9211 55.2705 42.7094 55.2705C44.4601 55.2705 44.6957 55.2464 44.873 55.0493C45.1228 54.7716 45.1263 54.4958 44.8831 54.2509C44.7267 54.0936 44.3543 54.0609 42.7195 54.0609C41.2234 54.0609 40.743 54.0243 40.7377 53.9097C40.7113 53.3353 40.7355 51.8525 40.772 51.8159C40.7964 51.7912 41.8053 51.7648 43.014 51.7571C45.0099 51.7445 45.2326 51.7219 45.4421 51.5111C45.7172 51.2343 45.7318 51.0432 45.5024 50.7274C45.3395 50.5032 45.1327 50.4914 40.9646 50.4663C37.6758 50.4466 36.5234 50.4775 36.2971 50.5909ZM87.8936 50.6111L87.6232 50.8086V54.6484C87.6232 57.4736 87.6613 58.5264 87.7674 58.6332C87.873 58.7394 88.8503 58.7784 91.4143 58.7784C94.4864 58.7784 95.029 58.7496 95.828 58.5439C97.4756 58.1199 98.412 57.4607 99.0178 56.2987C99.441 55.4869 99.4709 53.9402 99.0802 53.0752C98.5736 51.9539 97.4427 51.1489 95.7757 50.7231C95.2001 50.5762 94.1842 50.5151 91.5898 50.4713C88.5519 50.42 88.1334 50.4358 87.8936 50.6111ZM57.6702 51.6903C58.4256 52.0833 58.8781 53.8108 58.6634 55.4809C58.5339 56.4888 58.3703 56.9279 57.9648 57.3556C57.1219 58.2448 55.9237 57.6803 55.5225 56.2048C55.3359 55.5186 55.3729 53.6117 55.5868 52.8929C55.9201 51.7732 56.8253 51.2506 57.6702 51.6903ZM76.2666 51.9223C76.8557 52.5152 77.0837 53.4294 77.0224 54.9536C76.9635 56.4178 76.6813 57.1851 76.062 57.5651C75.5832 57.8588 75.3438 57.8704 74.8296 57.6249C74.2911 57.3677 73.9385 56.6683 73.7737 55.5306C73.5309 53.8543 73.9284 52.2173 74.6919 51.7489C75.2718 51.393 75.7981 51.4509 76.2666 51.9223ZM93.6104 51.9322C93.974 52.1214 94.4042 52.8223 94.5334 53.4359C94.6815 54.1392 94.619 55.6189 94.4149 56.2369C94.1392 57.0726 93.5552 57.5688 92.8477 57.5688H92.311V54.6657V51.7627H92.7978C93.0655 51.7627 93.4312 51.839 93.6104 51.9322Z" fill="black"></path>
</svg>
