<?xml version="1.0" encoding="UTF-8"?>
<svg xmlns="http://www.w3.org/2000/svg" width="261" height="82" viewBox="0 0 261 82" fill="none">
  <path fill-rule="evenodd" clip-rule="evenodd" d="M23.5102 0C10.5258 0 0 10.3488 0 23.1147V58.75H36.4898C49.4742 58.75 60 48.4012 60 35.6352V0H23.5102ZM30.8571 9.14959C21.3893 9.14959 13.7143 16.6956 13.7143 26.0041V49.3596H18.6122V25.7633C18.6122 19.2475 23.9849 13.9652 30.6122 13.9652H39.4286V21.1885C39.4286 28.0966 34.0487 33.7692 27.1837 34.3773V27.4488C27.1837 22.3442 30.2858 20.1852 31.8367 19.7438C27.1028 19.7438 23.2653 23.5168 23.2653 28.1711V39.0061H26.449C27.8387 39.0061 29.1914 38.8502 30.4898 38.5554L37.2245 49.3596H42.7347L35.0204 36.8579C40.566 33.8736 44.3265 28.0832 44.3265 21.4293V9.14959H30.8571Z" fill="black"></path>
</svg>
